<?xml version="1.0" encoding="UTF-8" standalone="no"?>
<svg width="20px" height="20px" viewBox="0 0 20 20" version="1.1" xmlns="http://www.w3.org/2000/svg" xmlns:xlink="http://www.w3.org/1999/xlink">
    <!-- Generator: sketchtool 40 (33762) - http://www.bohemiancoding.com/sketch -->
    <title>838366FA-2B67-4F30-A840-4B06C98EBEDE</title>
    <desc>Created with sketchtool.</desc>
    <defs></defs>
    <g id="main_page" stroke="none" stroke-width="1" fill="none" fill-rule="evenodd">
        <g id="main_page_mobile_menu" transform="translate(-107.000000, -188.000000)" fill="#585D6C">
            <g id="dropdown" transform="translate(10.000000, 66.000000)">
                <g id="New-Project-+-add-circle-outline" transform="translate(97.000000, 122.000000)">
                    <g id="add-circle-outline">
                        <path d="M11,5 L9,5 L9,9 L5,9 L5,11 L9,11 L9,15 L11,15 L11,11 L15,11 L15,9 L11,9 L11,5 L11,5 Z M10,0 C4.5,0 0,4.5 0,10 C0,15.5 4.5,20 10,20 C15.5,20 20,15.5 20,10 C20,4.5 15.5,0 10,0 L10,0 Z M10,18 C5.6,18 2,14.4 2,10 C2,5.6 5.6,2 10,2 C14.4,2 18,5.6 18,10 C18,14.4 14.4,18 10,18 L10,18 Z" id="Shape"></path>
                    </g>
                </g>
            </g>
        </g>
    </g>
</svg>