<?xml version="1.0" encoding="UTF-8" standalone="no"?>
<svg width="18px" height="18px" viewBox="0 0 18 18" version="1.1" xmlns="http://www.w3.org/2000/svg" xmlns:xlink="http://www.w3.org/1999/xlink">
    <!-- Generator: sketchtool 40 (33762) - http://www.bohemiancoding.com/sketch -->
    <title>748922D6-80BB-445D-A438-F3EEB190E3A6</title>
    <desc>Created with sketchtool.</desc>
    <defs></defs>
    <g id="landing" stroke="none" stroke-width="1" fill="none" fill-rule="evenodd">
        <g id="landing_web_sign_in" transform="translate(-570.000000, -424.000000)" fill="#03C386">
            <g id="Group" transform="translate(490.000000, 114.000000)">
                <g id="check-box-+-Rectangle-954" transform="translate(80.000000, 310.000000)">
                    <g id="check-box">
                        <path d="M16,0 L2,0 C0.9,0 0,0.9 0,2 L0,16 C0,17.1 0.9,18 2,18 L16,18 C17.1,18 18,17.1 18,16 L18,2 C18,0.9 17.1,0 16,0 L16,0 Z M7,14 L2,9 L3.4,7.6 L7,11.2 L14.6,3.6 L16,5 L7,14 L7,14 Z" id="Shape"></path>
                    </g>
                </g>
            </g>
        </g>
    </g>
</svg>