<?xml version="1.0" encoding="UTF-8"?>
<svg width="20px" height="11px" viewBox="0 0 20 11" version="1.1" xmlns="http://www.w3.org/2000/svg" xmlns:xlink="http://www.w3.org/1999/xlink">
    <!-- Generator: Sketch 41.2 (35397) - http://www.bohemiancoding.com/sketch -->
    <title>Rectangle 662 + attachment</title>
    <desc>Created with Sketch.</desc>
    <defs></defs>
    <g id="project_details_manager" stroke="none" stroke-width="1" fill="none" fill-rule="evenodd">
        <g id="project_details_edit_message" transform="translate(-492.000000, -438.000000)">
            <g id="msg-copy-3" transform="translate(470.000000, 202.000000)">
                <g id="Group" transform="translate(20.000000, 216.000000)">
                    <g id="Rectangle-662-+-attachment" transform="translate(0.000000, 13.000000)">
                        <rect id="Rectangle-662" x="0" y="0" width="24" height="24"></rect>
                        <g id="attachment" transform="translate(2.000000, 7.000000)" fill="#A3ADBB">
                            <path d="M0,5.5 C0,2.5 2.5,0 5.5,0 L16,0 C18.2,0 20,1.8 20,4 C20,6.2 18.2,8 16,8 L7.5,8 C6.1,8 5,6.9 5,5.5 C5,4.1 6.1,3 7.5,3 L15,3 L15,4.5 L7.5,4.5 C6.9,4.5 6.5,4.9 6.5,5.5 C6.5,6.1 6.9,6.5 7.5,6.5 L16,6.5 C17.4,6.5 18.5,5.4 18.5,4 C18.5,2.6 17.4,1.5 16,1.5 L5.5,1.5 C3.3,1.5 1.5,3.3 1.5,5.5 C1.5,7.7 3.3,9.5 5.5,9.5 L15,9.5 L15,11 L5.5,11 C2.5,11 0,8.5 0,5.5 Z" id="Shape"></path>
                        </g>
                    </g>
                </g>
            </g>
        </g>
    </g>
</svg>