<?xml version="1.0" encoding="utf-8"?>
<!-- Generator: Adobe Illustrator 17.0.0, SVG Export Plug-In . SVG Version: 6.00 Build 0)  -->
<!DOCTYPE svg PUBLIC "-//W3C//DTD SVG 1.1//EN" "http://www.w3.org/Graphics/SVG/1.1/DTD/svg11.dtd">
<svg version="1.1" xmlns="http://www.w3.org/2000/svg" xmlns:xlink="http://www.w3.org/1999/xlink" x="0px" y="0px"
	 width="55.638px" height="36px" viewBox="0 0 55.638 36" enable-background="new 0 0 55.638 36" xml:space="preserve">
<g id="Слой_2">
</g>
<g id="Слой_1">
	<title>Artboard 1</title>
	<desc>Created with Sketch.</desc>
	<g id="Page-1">
		<g id="Artboard-1">
			<g id="Fill-174-_x2B_-Fill-175" transform="translate(9.000000, 3.000000)">
				<path id="Fill-174" fill="#FFFFFF" d="M18.819,33C-0.038,33-8.565,16.392-8.919,15.685c-0.216-0.431-0.216-0.939,0-1.37
					C-8.565,13.608-0.038-3,18.819-3s27.384,16.608,27.738,17.315c0.216,0.431,0.216,0.939,0,1.37
					C46.203,16.392,37.676,33,18.819,33L18.819,33L18.819,33z M-5.793,15c1.78,3.019,9.749,14.937,24.612,14.937
					S41.651,18.019,43.431,15c-1.78-3.019-9.749-14.937-24.612-14.937S-4.013,11.981-5.793,15L-5.793,15L-5.793,15z"/>
				<path id="Fill-175" fill="#FFFFFF" d="M18.919,29c-7.72,0-14-6.28-14-14s6.28-14,14-14s14,6.28,14,14S26.639,29,18.919,29
					L18.919,29z M14.229,9.07c3.606-2.736,9.006-2.301,12.04,0.969c0.574,0.618,0.486,1.537-0.195,2.055
					c-0.682,0.517-1.698,0.436-2.271-0.183c-1.889-2.037-5.254-2.306-7.497-0.603s-2.534,4.746-0.645,6.783s5.254,2.306,7.497,0.603
					c0.682-0.517,1.698-0.436,2.271,0.183s0.486,1.537-0.195,2.055c-3.606,2.736-9.006,2.301-12.04-0.969
					C10.16,16.692,10.623,11.806,14.229,9.07L14.229,9.07z"/>
			</g>
		</g>
	</g>
</g>
</svg>
