<?xml version="1.0" encoding="UTF-8"?>
<svg width="113px" height="14px" viewBox="0 0 113 14" version="1.1" xmlns="http://www.w3.org/2000/svg" xmlns:xlink="http://www.w3.org/1999/xlink">
    <!-- Generator: Sketch 41.2 (35397) - http://www.bohemiancoding.com/sketch -->
    <title>CONTROLIO Copy</title>
    <desc>Created with Sketch.</desc>
    <defs></defs>
    <g id="Symbols" stroke="none" stroke-width="1" fill="none" fill-rule="evenodd">
        <g id="top_web_manager_menu_2" transform="translate(-336.000000, -23.000000)" fill="#FFFFFF">
            <g id="logo" transform="translate(250.000000, 0.000000)">
                <path d="M86.0634766,29.6982422 C86.0634766,28.8076127 86.2246078,27.9638712 86.546875,27.1669922 C86.8691422,26.3701132 87.3115206,25.6787139 87.8740234,25.0927734 C88.4365263,24.506833 89.1249959,24.0424822 89.9394531,23.699707 C90.7539103,23.3569319 91.6269485,23.1855469 92.5585938,23.1855469 C93.6425835,23.1855469 94.5698204,23.3540022 95.340332,23.690918 C96.1108437,24.0278337 96.8271451,24.5126921 97.4892578,25.1455078 L96.0742188,26.7802734 C95.5234347,26.2763647 94.9667997,25.8896498 94.4042969,25.6201172 C93.8417941,25.3505846 93.2207065,25.2158203 92.5410156,25.2158203 C91.7558554,25.2158203 91.0439485,25.4150371 90.4052734,25.8134766 C89.7665984,26.2119161 89.2700213,26.752438 88.9155273,27.4350586 C88.5610334,28.1176792 88.3837891,28.8720662 88.3837891,29.6982422 C88.3837891,30.9462953 88.7792929,32.0053667 89.5703125,32.8754883 C90.3613321,33.7456098 91.3515566,34.1806641 92.5410156,34.1806641 C93.2675818,34.1806641 93.9047824,34.0458998 94.4526367,33.7763672 C95.000491,33.5068346 95.5703095,33.0966824 96.1621094,32.5458984 L97.5859375,33.9873047 C97.1171852,34.4736352 96.6528343,34.8720688 96.1928711,35.1826172 C95.7329079,35.4931656 95.1879914,35.7436514 94.5581055,35.934082 C93.9282195,36.1245127 93.2324257,36.2197266 92.4707031,36.2197266 C91.2695252,36.2197266 90.1782276,35.9326201 89.1967773,35.3583984 C88.2153271,34.7841768 87.4477567,33.9990284 86.894043,33.0029297 C86.3403293,32.006831 86.0634766,30.9052795 86.0634766,29.6982422 Z M98.9833984,29.6982422 C98.9833984,28.8193315 99.1474593,27.9829141 99.4755859,27.1889648 C99.8037126,26.3950156 100.25488,25.7036162 100.829102,25.1147461 C101.403323,24.525876 102.103511,24.0571306 102.929688,23.7084961 C103.755864,23.3598615 104.64062,23.1855469 105.583984,23.1855469 C106.533208,23.1855469 107.417965,23.3569319 108.238281,23.699707 C109.058598,24.0424822 109.754392,24.506833 110.325684,25.0927734 C110.896976,25.6787139 111.345213,26.3701132 111.67041,27.1669922 C111.995607,27.9638712 112.158203,28.8076127 112.158203,29.6982422 C112.158203,30.5771528 111.994142,31.4150351 111.666016,32.2119141 C111.337889,33.008793 110.886722,33.7016572 110.3125,34.2905273 C109.738278,34.8793975 109.036625,35.3481428 108.20752,35.6967773 C107.378414,36.0454119 106.492192,36.2197266 105.548828,36.2197266 C104.289056,36.2197266 103.155278,35.9252959 102.147461,35.3364258 C101.139643,34.7475556 100.360354,33.9580128 99.8095703,32.9677734 C99.2587863,31.9775341 98.9833984,30.8877013 98.9833984,29.6982422 Z M101.303711,29.6982422 C101.303711,30.5126994 101.483885,31.2612271 101.844238,31.9438477 C102.204592,32.6264683 102.714352,33.1699199 103.373535,33.5742188 C104.032718,33.9785176 104.769527,34.1806641 105.583984,34.1806641 C106.398442,34.1806641 107.132321,33.9799825 107.785645,33.5786133 C108.438968,33.1772441 108.944334,32.6367221 109.301758,31.9570312 C109.659181,31.2773404 109.837891,30.5244182 109.837891,29.6982422 C109.837891,28.883785 109.656252,28.1352573 109.292969,27.4526367 C108.929686,26.7700161 108.41846,26.2265645 107.759277,25.8222656 C107.100094,25.4179667 106.363285,25.2158203 105.548828,25.2158203 C104.734371,25.2158203 104.000492,25.4165019 103.347168,25.8178711 C102.693844,26.2192403 102.189943,26.7597622 101.835449,27.4394531 C101.480955,28.119144 101.303711,28.8720662 101.303711,29.6982422 Z M114.830078,36 L114.830078,23.3964844 L116.886719,23.3964844 L123.636719,32.1152344 L123.636719,23.3964844 L125.816406,23.3964844 L125.816406,36 L123.961914,36 L117.009766,27.0351562 L117.009766,36 L114.830078,36 Z M128.145508,25.453125 L128.145508,23.3964844 L138.367188,23.3964844 L138.367188,25.453125 L134.376953,25.453125 L134.376953,36 L132.144531,36 L132.144531,25.453125 L128.145508,25.453125 Z M140.705078,36 L140.705078,23.3964844 L146.321289,23.3964844 C147.780281,23.3964844 148.925777,23.759762 149.757812,24.4863281 C150.589848,25.2128943 151.005859,26.1884704 151.005859,27.4130859 C151.005859,28.4091847 150.736331,29.2280241 150.197266,29.8696289 C149.6582,30.5112337 148.925786,30.9638659 148,31.2275391 L151.401367,36 L148.791016,36 L145.662109,31.6054688 L142.919922,31.6054688 L142.919922,36 L140.705078,36 Z M142.919922,29.6455078 L146.163086,29.6455078 C146.954106,29.6455078 147.583982,29.4521504 148.052734,29.0654297 C148.521487,28.678709 148.755859,28.1572298 148.755859,27.5009766 C148.755859,26.8330045 148.527346,26.3188495 148.070312,25.9584961 C147.613279,25.5981427 146.971684,25.4179688 146.145508,25.4179688 L142.919922,25.4179688 L142.919922,29.6455078 Z M153.15918,29.6982422 C153.15918,28.8193315 153.323241,27.9829141 153.651367,27.1889648 C153.979494,26.3950156 154.430661,25.7036162 155.004883,25.1147461 C155.579104,24.525876 156.279293,24.0571306 157.105469,23.7084961 C157.931645,23.3598615 158.816402,23.1855469 159.759766,23.1855469 C160.708989,23.1855469 161.593746,23.3569319 162.414062,23.699707 C163.234379,24.0424822 163.930173,24.506833 164.501465,25.0927734 C165.072757,25.6787139 165.520994,26.3701132 165.846191,27.1669922 C166.171388,27.9638712 166.333984,28.8076127 166.333984,29.6982422 C166.333984,30.5771528 166.169924,31.4150351 165.841797,32.2119141 C165.51367,33.008793 165.062503,33.7016572 164.488281,34.2905273 C163.91406,34.8793975 163.212406,35.3481428 162.383301,35.6967773 C161.554195,36.0454119 160.667973,36.2197266 159.724609,36.2197266 C158.464837,36.2197266 157.33106,35.9252959 156.323242,35.3364258 C155.315425,34.7475556 154.536136,33.9580128 153.985352,32.9677734 C153.434568,31.9775341 153.15918,30.8877013 153.15918,29.6982422 Z M155.479492,29.6982422 C155.479492,30.5126994 155.659666,31.2612271 156.02002,31.9438477 C156.380373,32.6264683 156.890133,33.1699199 157.549316,33.5742188 C158.208499,33.9785176 158.945308,34.1806641 159.759766,34.1806641 C160.574223,34.1806641 161.308102,33.9799825 161.961426,33.5786133 C162.614749,33.1772441 163.120115,32.6367221 163.477539,31.9570312 C163.834963,31.2773404 164.013672,30.5244182 164.013672,29.6982422 C164.013672,28.883785 163.832033,28.1352573 163.46875,27.4526367 C163.105467,26.7700161 162.594242,26.2265645 161.935059,25.8222656 C161.275876,25.4179667 160.539067,25.2158203 159.724609,25.2158203 C158.910152,25.2158203 158.176273,25.4165019 157.522949,25.8178711 C156.869626,26.2192403 156.365724,26.7597622 156.01123,27.4394531 C155.656737,28.119144 155.479492,28.8720662 155.479492,29.6982422 Z M169.005859,36 L169.005859,23.3964844 L171.220703,23.3964844 L171.220703,33.9873047 L177.847656,33.9873047 L177.847656,36 L169.005859,36 Z M180.273438,36 L180.273438,23.3964844 L182.488281,23.3964844 L182.488281,36 L180.273438,36 Z M185.291992,29.6982422 C185.291992,28.8193315 185.456053,27.9829141 185.78418,27.1889648 C186.112306,26.3950156 186.563474,25.7036162 187.137695,25.1147461 C187.711917,24.525876 188.412105,24.0571306 189.238281,23.7084961 C190.064457,23.3598615 190.949214,23.1855469 191.892578,23.1855469 C192.841802,23.1855469 193.726558,23.3569319 194.546875,23.699707 C195.367192,24.0424822 196.062985,24.506833 196.634277,25.0927734 C197.205569,25.6787139 197.653807,26.3701132 197.979004,27.1669922 C198.304201,27.9638712 198.466797,28.8076127 198.466797,29.6982422 C198.466797,30.5771528 198.302736,31.4150351 197.974609,32.2119141 C197.646483,33.008793 197.195315,33.7016572 196.621094,34.2905273 C196.046872,34.8793975 195.345219,35.3481428 194.516113,35.6967773 C193.687008,36.0454119 192.800786,36.2197266 191.857422,36.2197266 C190.59765,36.2197266 189.463872,35.9252959 188.456055,35.3364258 C187.448237,34.7475556 186.668948,33.9580128 186.118164,32.9677734 C185.56738,31.9775341 185.291992,30.8877013 185.291992,29.6982422 Z M187.612305,29.6982422 C187.612305,30.5126994 187.792479,31.2612271 188.152832,31.9438477 C188.513185,32.6264683 189.022946,33.1699199 189.682129,33.5742188 C190.341312,33.9785176 191.078121,34.1806641 191.892578,34.1806641 C192.707035,34.1806641 193.440915,33.9799825 194.094238,33.5786133 C194.747562,33.1772441 195.252928,32.6367221 195.610352,31.9570312 C195.967775,31.2773404 196.146484,30.5244182 196.146484,29.6982422 C196.146484,28.883785 195.964846,28.1352573 195.601562,27.4526367 C195.238279,26.7700161 194.727054,26.2265645 194.067871,25.8222656 C193.408688,25.4179667 192.671879,25.2158203 191.857422,25.2158203 C191.042965,25.2158203 190.309085,25.4165019 189.655762,25.8178711 C189.002438,26.2192403 188.498537,26.7597622 188.144043,27.4394531 C187.789549,28.119144 187.612305,28.8720662 187.612305,29.6982422 Z" id="CONTROLIO-Copy"></path>
            </g>
        </g>
    </g>
</svg>